<?xml version="1.0" encoding="UTF-8"?>
<svg id="Layer_1" data-name="Layer 1" xmlns="http://www.w3.org/2000/svg" width="133.379" height="133.683" viewBox="0 0 133.379 133.683">
  <path d="M3.546,133.012c-.761-.124-2.093-1.777-3.546-1.45,1.759-29.921,19.967-56.528,49.596-64.415C30.8,59.853,12.956,47.288,5.397,27.759,3.38,22.548-3.663.462,4.865,0l128.086,1.495c1.628,29.487-19.503,57.424-47.947,64.961,2.127,3.149,7.656,3.279,11.161,5.1,10.376,5.391,20.489,14.306,26.804,24.189,4.877,7.632,13.249,27.238,9.45,35.848-1.607,3.642-3.417,1.419-4.223,1.419H3.546Z"/>
</svg>