<?xml version="1.0" encoding="UTF-8"?>
<svg id="Layer_1" data-name="Layer 1" xmlns="http://www.w3.org/2000/svg" width="132.319" height="132.77" viewBox="0 0 132.319 132.77">
  <path d="M25.731,86.192c-3.501-3.769-8.952-5.39-12.733-9.222C-15.528,48.047,6.33-.678,45.335.007c.187,1.041,1.643,2.805,1.643,3.322v21.955l9.154-12.802c29.815-27.304,77.385-6.719,75.834,34.049h-25.496l11.155,8.039c30.311,27.604,10.633,79.63-30.794,78.17-2.952-7.069-1.139-15.011-1.622-22.468-4.228,3.209-6.559,7.769-10.658,11.283-22.185,19.016-57.097,12.613-69.817-13.658-1.471-3.039-7.912-21.705-2.374-21.705h23.372ZM85.222,46.531h-38.245v39.661h38.245v-39.661Z"/>
</svg>