<?xml version="1.0" encoding="UTF-8"?>
<svg id="Layer_1" data-name="Layer 1" xmlns="http://www.w3.org/2000/svg" width="133.03" height="132.128" viewBox="0 0 133.03 132.128">
  <path d="M91.841,63.741h37.536c2.881,0,3.632,2.539,3.651,4.885.132,16.012-11.45,37.318-23.445,47.561-37.181,31.75-96.3,13.787-108.047-33.674-.681-2.752-3.283-18.772.358-18.772h38.953c-4.445-4.26-11.305-6.077-16.29-9.915C14.785,46.299,4.095,29.458,1.526,17.367.939,14.607-1.235,0,1.896,0h128.898c4.658,0-1.248,22.418-2.484,25.845-2.187,6.062-10.54,18.519-15.168,23.076-5.821,5.732-14.904,9.836-21.3,14.819Z"/>
</svg>