<?xml version="1.0" encoding="UTF-8"?>
<svg id="Layer_1" data-name="Layer 1" xmlns="http://www.w3.org/2000/svg" width="250" height="50.162" viewBox="0 0 250 50.162">
  <defs>
    <style>
      .cls-1 {
        fill: #e1dac8;
      }

      .cls-2 {
        fill: #212e3f;
      }

      .cls-3 {
        fill: #fff;
      }

      .cls-4 {
        fill: #1a1a1a;
      }
    </style>
  </defs>
  <rect class="cls-1" x="0" y="0" width="247" height="50.162" rx="25.081" ry="25.081"/>
  <rect class="cls-2" x="102.88" y="0" width="147.12" height="50.162" rx="24.941" ry="24.941"/>
  <g>
    <path class="cls-3" d="M144.405,32.687c-1.097,0-2.059-.19-2.887-.569-.829-.379-1.479-.904-1.952-1.575-.472-.671-.738-1.456-.796-2.354h2.03c.105.91.481,1.604,1.129,2.083.647.479,1.496.718,2.546.718.991,0,1.755-.207,2.292-.622.536-.414.805-.994.805-1.741,0-.595-.189-1.087-.569-1.479-.379-.391-.971-.668-1.776-.832l-2.24-.507c-1.178-.256-2.077-.7-2.695-1.33-.619-.63-.928-1.429-.928-2.397,0-.781.195-1.473.586-2.074.391-.601.945-1.07,1.663-1.409.717-.338,1.56-.507,2.529-.507.991,0,1.86.178,2.607.534.747.356,1.344.852,1.793,1.487.449.636.72,1.386.814,2.249h-2.03c-.151-.851-.513-1.496-1.085-1.934s-1.307-.656-2.205-.656c-.84,0-1.514.192-2.021.578-.507.385-.761.91-.761,1.575,0,.525.178.972.534,1.339.356.368.937.639,1.741.814l2.328.525c1.202.269,2.103.724,2.704,1.365.601.642.901,1.476.901,2.502,0,1.283-.446,2.307-1.339,3.071s-2.132,1.146-3.719,1.146Z"/>
    <path class="cls-3" d="M152.455,32.477v-14.175h1.925v14.175h-1.925Z"/>
    <path class="cls-3" d="M163.707,32.687c-1.225,0-2.31-.309-3.255-.927-.945-.619-1.686-1.479-2.223-2.582s-.805-2.365-.805-3.789c0-1.447.28-2.718.84-3.815s1.339-1.951,2.336-2.564c.998-.612,2.138-.918,3.421-.918,1.003,0,1.899.187,2.687.56.788.374,1.435.899,1.942,1.575.507.677.837,1.487.989,2.433h-2.013c-.14-.863-.531-1.549-1.172-2.056-.642-.508-1.453-.761-2.433-.761-.921,0-1.732.23-2.432.691-.7.461-1.243,1.108-1.627,1.942-.385.834-.578,1.812-.578,2.932,0,1.085.192,2.05.578,2.896.385.846.921,1.514,1.61,2.004.688.49,1.481.735,2.38.735.735,0,1.385-.143,1.951-.429.566-.286,1.015-.671,1.348-1.155.333-.484.499-1.024.499-1.619v-.892h-4.042v-1.628h4.235c.548,0,.968.146,1.26.438.292.292.438.712.438,1.26v5.46h-1.82v-2.065h-.07c-.269.665-.758,1.21-1.47,1.636-.712.426-1.569.639-2.573.639Z"/>
    <path class="cls-3" d="M184.602,32.477h-2.17l-7.578-11.322h-.07v11.322h-1.802v-14.175h2.135l7.612,11.375h.07v-11.375h1.802v14.175Z"/>
    <path class="cls-3" d="M198.847,32.687c-1.144,0-2.121-.21-2.932-.63s-1.432-1.024-1.864-1.812c-.432-.787-.647-1.735-.647-2.844v-9.1h1.978v8.995c0,1.144.298,2.024.893,2.643.595.619,1.481.928,2.66.928,1.201,0,2.088-.33,2.66-.989s.858-1.514.858-2.564v-9.012h1.942v9.135c0,1.05-.21,1.969-.63,2.756-.42.788-1.042,1.4-1.864,1.837-.823.438-1.841.656-3.054.656Z"/>
    <path class="cls-3" d="M208.017,32.477v-14.175h5.617c1.423,0,2.546.391,3.369,1.172.823.782,1.234,1.843,1.234,3.185,0,1.33-.414,2.389-1.243,3.176-.828.788-1.948,1.181-3.36,1.181h-3.675v5.46h-1.942ZM209.959,25.319h3.57c.863,0,1.543-.239,2.039-.717.496-.478.744-1.126.744-1.942s-.248-1.464-.744-1.942c-.496-.479-1.176-.718-2.039-.718h-3.57v5.32Z"/>
  </g>
  <g>
    <path class="cls-4" d="M27.803,32.477v-14.175h1.942v12.46h6.93v1.715h-8.872Z"/>
    <path class="cls-4" d="M44.113,32.687c-1.249,0-2.362-.3-3.342-.901-.98-.601-1.75-1.446-2.31-2.537s-.84-2.377-.84-3.859c0-1.493.28-2.785.84-3.876.56-1.091,1.33-1.934,2.31-2.529.98-.595,2.094-.892,3.342-.892,1.26,0,2.38.294,3.36.883.98.589,1.747,1.43,2.301,2.52.554,1.091.831,2.389.831,3.894,0,1.481-.283,2.771-.849,3.867-.566,1.097-1.336,1.943-2.31,2.538-.974.595-2.085.893-3.334.893ZM44.113,30.937c.922,0,1.724-.23,2.406-.691.683-.46,1.208-1.108,1.575-1.942.368-.834.551-1.805.551-2.914,0-1.12-.184-2.097-.551-2.931s-.893-1.479-1.575-1.934c-.682-.455-1.484-.682-2.406-.682s-1.721.227-2.397.682-1.202,1.1-1.575,1.934c-.374.834-.56,1.811-.56,2.931,0,1.108.187,2.08.56,2.914.373.834.898,1.482,1.575,1.942.677.461,1.476.691,2.397.691Z"/>
    <path class="cls-4" d="M59.128,32.687c-1.225,0-2.31-.309-3.255-.927-.945-.619-1.686-1.479-2.223-2.582s-.805-2.365-.805-3.789c0-1.447.28-2.718.84-3.815s1.339-1.951,2.336-2.564c.998-.612,2.138-.918,3.421-.918,1.003,0,1.899.187,2.687.56.788.374,1.435.899,1.942,1.575.507.677.837,1.487.989,2.433h-2.013c-.14-.863-.531-1.549-1.172-2.056-.642-.508-1.453-.761-2.433-.761-.921,0-1.732.23-2.432.691-.7.461-1.243,1.108-1.627,1.942-.385.834-.578,1.812-.578,2.932,0,1.085.192,2.05.578,2.896.385.846.921,1.514,1.61,2.004.688.49,1.481.735,2.38.735.735,0,1.385-.143,1.951-.429.566-.286,1.015-.671,1.348-1.155.333-.484.499-1.024.499-1.619v-.892h-4.042v-1.628h4.235c.548,0,.968.146,1.26.438.292.292.438.712.438,1.26v5.46h-1.82v-2.065h-.07c-.269.665-.758,1.21-1.47,1.636-.712.426-1.569.639-2.573.639Z"/>
    <path class="cls-4" d="M73.6,32.477v-14.175h1.925v14.175h-1.925Z"/>
    <path class="cls-4" d="M90.977,32.477h-2.17l-7.578-11.322h-.07v11.322h-1.802v-14.175h2.135l7.612,11.375h.07v-11.375h1.802v14.175Z"/>
  </g>
</svg>