<?xml version="1.0" encoding="UTF-8"?>
<svg id="Layer_1" data-name="Layer 1" xmlns="http://www.w3.org/2000/svg" width="253.326" height="245.212" viewBox="0 0 253.326 245.212">
  <defs>
    <style>
      .cls-1 {
        fill: #212e3f;
      }

      .cls-2 {
        fill: #fff;
      }
    </style>
  </defs>
  <g>
    <path class="cls-1" d="M108.998,76.803l-.05-7.869c-.007-1.175-.286-2.332-.814-3.382l-27.25-54.164c-4.128-8.217,5.405-15.012,11.57-9.198.616.581,1.104,1.292,1.482,2.05l19.814,39.757c1.301,2.611,3.978,4.252,6.895,4.227l14.854-.125c2.874-.024,5.491-1.661,6.77-4.235L162.291,3.579c3.294-4.807,9.043-4.413,11.979-.943,1.828,2.161,2.033,5.275.839,7.842-3.706,7.968-7.565,15.875-11.459,23.749-5.595,11.315-12.075,22.443-16.694,34.135-.355.899-.528,1.859-.527,2.825l.007,5.559c.005,4.219-3.413,7.641-7.632,7.641h-22.174c-4.196,0-7.605-3.388-7.632-7.584Z"/>
    <path class="cls-1" d="M126.361,9.846c16.045-1.862,17.927,21.951,2.94,23.465-15.668,1.582-17.724-21.749-2.94-23.465Z"/>
    <path class="cls-1" d="M126.361,211.375c16.045-1.862,17.927,21.951,2.94,23.465-15.668,1.582-17.724-21.749-2.94-23.465Z"/>
    <path class="cls-1" d="M208.684,158.483c16.045-1.862,17.927,21.951,2.94,23.465-15.668,1.582-17.724-21.749-2.94-23.465Z"/>
    <path class="cls-1" d="M208.684,60.161c16.045-1.862,17.927,21.951,2.94,23.465-15.668,1.582-17.724-21.749-2.94-23.465Z"/>
    <path class="cls-1" d="M38.276,60.161c16.045-1.862,17.927,21.951,2.94,23.465-15.668,1.582-17.724-21.749-2.94-23.465Z"/>
    <path class="cls-1" d="M36.543,158.483c16.045-1.862,17.927,21.951,2.94,23.465-15.668,1.582-17.724-21.749-2.94-23.465Z"/>
    <path class="cls-1" d="M175.468,126.457l6.699,4.13c1,.617,2.129.994,3.299,1.103l60.372,5.609c9.156.856,9.864,12.541,1.665,14.687-.82.214-1.681.251-2.524.169l-44.214-4.276c-2.904-.281-5.714,1.118-7.24,3.605l-7.768,12.662c-1.503,2.45-1.502,5.536.002,7.986l23.545,38.334c2.33,5.341-1.052,10.007-5.551,10.657-2.802.405-5.55-1.073-7.094-3.446-4.792-7.367-9.45-14.831-14.062-22.306-6.628-10.743-12.628-22.137-20.093-32.251-.574-.777-1.296-1.433-2.116-1.945l-4.717-2.941c-3.58-2.232-4.67-6.945-2.433-10.522l11.755-18.802c2.225-3.558,6.904-4.653,10.476-2.451Z"/>
    <path class="cls-1" d="M81.452,117.069l-6.574-4.325c-.982-.646-2.099-1.056-3.265-1.199l-60.181-7.382c-9.127-1.125-9.491-12.826-1.233-14.729.826-.19,1.687-.202,2.528-.095l44.069,5.575c2.895.366,5.745-.95,7.343-3.391l8.138-12.428c1.574-2.405,1.665-5.49.233-7.982l-22.407-39.01c-2.172-5.408,1.345-9.972,5.862-10.489,2.813-.322,5.516,1.236,6.989,3.653,4.573,7.505,9.01,15.102,13.4,22.71,6.309,10.933,11.971,22.498,19.136,32.828.551.794,1.254,1.471,2.058,2.006l4.628,3.078c3.513,2.336,4.464,7.079,2.123,10.589l-12.303,18.448c-2.328,3.491-7.038,4.448-10.544,2.142Z"/>
    <path class="cls-1" d="M176.155,117.548l6.574-4.325c.982-.646,2.099-1.056,3.265-1.199l60.181-7.382c9.127-1.125,9.491-12.826,1.233-14.729-.826-.19-1.687-.202-2.528-.095l-44.069,5.575c-2.895.366-5.745-.95-7.343-3.391l-8.138-12.428c-1.574-2.405-1.665-5.49-.233-7.982l22.407-39.01c2.172-5.408-1.345-9.972-5.862-10.489-2.813-.322-5.516,1.236-6.989,3.653-4.573,7.505-9.01,15.102-13.4,22.71-6.309,10.933-11.971,22.498-19.136,32.828-.551.794-1.254,1.471-2.058,2.006l-4.628,3.078c-3.513,2.336-4.464,7.079-2.123,10.589l12.303,18.448c2.328,3.491,7.038,4.448,10.544,2.142Z"/>
    <path class="cls-1" d="M96.147,163.304l-7.014,3.568c-1.047.533-1.957,1.3-2.659,2.242l-36.229,48.618c-5.499,7.371-15.843,1.889-13.405-6.227.244-.811.661-1.565,1.17-2.243l26.677-35.518c1.752-2.333,2.021-5.461.693-8.058l-6.763-13.226c-1.309-2.559-3.944-4.166-6.818-4.157l-44.987.136c-5.773-.793-7.995-6.109-6.207-10.289,1.114-2.603,3.806-4.18,6.636-4.261,8.784-.254,17.582-.344,26.366-.388,12.622-.063,25.474.748,37.997-.358.963-.085,1.899-.36,2.762-.794l4.967-2.495c3.77-1.894,8.361-.37,10.25,3.403l9.929,19.827c1.879,3.752.376,8.317-3.364,10.22Z"/>
    <path class="cls-1" d="M108.998,168.408l-.05,7.869c-.007,1.175-.286,2.332-.814,3.382l-27.25,54.164c-4.128,8.217,5.405,15.012,11.57,9.198.616-.581,1.104-1.292,1.482-2.05l19.814-39.757c1.301-2.611,3.978-4.252,6.895-4.227l14.854.125c2.874.024,5.491,1.661,6.77,4.235l20.022,40.286c3.294,4.807,9.043,4.413,11.979.943,1.828-2.161,2.033-5.275.839-7.842-3.706-7.968-7.565-15.875-11.459-23.749-5.595-11.315-12.075-22.443-16.694-34.135-.355-.899-.528-1.859-.527-2.825l.007-5.559c.005-4.219-3.413-7.641-7.632-7.641h-22.174c-4.196,0-7.605,3.388-7.632,7.584Z"/>
  </g>
  <circle class="cls-2" cx="127.936" cy="123.858" r="58.168"/>
</svg>