<?xml version="1.0" encoding="UTF-8"?>
<svg id="Layer_1" data-name="Layer 1" xmlns="http://www.w3.org/2000/svg" width="264.477" height="56.767" viewBox="0 0 264.477 56.767">
  <defs>
    <style>
      .cls-1 {
        fill: #212e3f;
      }

      .cls-2 {
        fill: #fff;
      }
    </style>
  </defs>
  <g>
    <g>
      <path class="cls-1" d="M25.233,17.78l-.012-1.822c-.002-.272-.066-.54-.188-.783l-6.308-12.539c-.956-1.902,1.251-3.475,2.678-2.129.143.135.256.299.343.475l4.587,9.204c.301.605.921.984,1.596.979l3.439-.029c.665-.006,1.271-.385,1.567-.98L37.57.829c.763-1.113,2.093-1.022,2.773-.218.423.5.471,1.221.194,1.815-.858,1.845-1.751,3.675-2.653,5.498-1.295,2.619-2.795,5.195-3.865,7.902-.082.208-.122.43-.122.654l.002,1.287c.001.977-.79,1.769-1.767,1.769h-5.133c-.971,0-1.761-.784-1.767-1.756Z"/>
      <path class="cls-1" d="M29.252,2.279c3.714-.431,4.15,5.082.681,5.432-3.627.366-4.103-5.035-.681-5.432Z"/>
      <path class="cls-1" d="M29.252,48.933c3.714-.431,4.15,5.082.681,5.432-3.627.366-4.103-5.035-.681-5.432Z"/>
      <path class="cls-1" d="M48.31,36.689c3.714-.431,4.15,5.082.681,5.432-3.627.366-4.103-5.035-.681-5.432Z"/>
      <path class="cls-1" d="M48.31,13.927c3.714-.431,4.15,5.082.681,5.432-3.627.366-4.103-5.035-.681-5.432Z"/>
      <path class="cls-1" d="M8.861,13.927c3.714-.431,4.15,5.082.681,5.432-3.627.366-4.103-5.035-.681-5.432Z"/>
      <path class="cls-1" d="M8.46,36.689c3.714-.431,4.15,5.082.681,5.432-3.627.366-4.103-5.035-.681-5.432Z"/>
      <path class="cls-1" d="M40.621,29.275l1.551.956c.232.143.493.23.764.255l13.976,1.298c2.12.198,2.284,2.903.386,3.4-.19.05-.389.058-.584.039l-10.236-.99c-.672-.065-1.323.259-1.676.835l-1.798,2.931c-.348.567-.348,1.282,0,1.849l5.451,8.874c.539,1.237-.243,2.317-1.285,2.467-.649.094-1.285-.248-1.642-.798-1.109-1.705-2.188-3.433-3.255-5.164-1.534-2.487-2.923-5.125-4.652-7.466-.133-.18-.3-.332-.49-.45l-1.092-.681c-.829-.517-1.081-1.608-.563-2.436l2.721-4.353c.515-.824,1.598-1.077,2.425-.567Z"/>
      <path class="cls-1" d="M18.856,27.101l-1.522-1.001c-.227-.149-.486-.244-.756-.278l-13.932-1.709c-2.113-.26-2.197-2.969-.285-3.41.191-.044.391-.047.585-.022l10.202,1.291c.67.085,1.33-.22,1.7-.785l1.884-2.877c.364-.557.385-1.271.054-1.848l-5.187-9.031c-.503-1.252.311-2.308,1.357-2.428.651-.075,1.277.286,1.618.846,1.059,1.737,2.086,3.496,3.102,5.257,1.461,2.531,2.771,5.208,4.43,7.6.127.184.29.341.476.464l1.071.713c.813.541,1.033,1.639.491,2.451l-2.848,4.271c-.539.808-1.629,1.03-2.441.496Z"/>
      <path class="cls-1" d="M40.78,27.212l1.522-1.001c.227-.149.486-.244.756-.278l13.932-1.709c2.113-.26,2.197-2.969.285-3.41-.191-.044-.391-.047-.585-.022l-10.202,1.291c-.67.085-1.33-.22-1.7-.785l-1.884-2.877c-.364-.557-.385-1.271-.054-1.848l5.187-9.031c.503-1.252-.311-2.308-1.357-2.428-.651-.075-1.277.286-1.618.846-1.059,1.737-2.086,3.496-3.102,5.257-1.461,2.531-2.771,5.208-4.43,7.6-.127.184-.29.341-.476.464l-1.071.713c-.813.541-1.033,1.639-.491,2.451l2.848,4.271c.539.808,1.629,1.03,2.441.496Z"/>
      <path class="cls-1" d="M22.258,37.805l-1.624.826c-.242.123-.453.301-.616.519l-8.387,11.255c-1.273,1.706-3.668.437-3.103-1.442.056-.188.153-.362.271-.519l6.176-8.222c.406-.54.468-1.264.16-1.865l-1.566-3.062c-.303-.592-.913-.964-1.578-.962l-10.414.031c-1.337-.184-1.851-1.414-1.437-2.382.258-.603.881-.968,1.536-.987,2.034-.059,4.07-.08,6.104-.09,2.922-.015,5.897.173,8.796-.083.223-.02.44-.083.639-.184l1.15-.578c.873-.438,1.936-.086,2.373.788l2.299,4.59c.435.869.087,1.925-.779,2.366Z"/>
      <path class="cls-1" d="M25.233,38.987l-.012,1.822c-.002.272-.066.54-.188.783l-6.308,12.539c-.956,1.902,1.251,3.475,2.678,2.129.143-.135.256-.299.343-.475l4.587-9.204c.301-.605.921-.984,1.596-.979l3.439.029c.665.006,1.271.385,1.567.98l4.635,9.326c.763,1.113,2.093,1.022,2.773.218.423-.5.471-1.221.194-1.815-.858-1.845-1.751-3.675-2.653-5.498-1.295-2.619-2.795-5.195-3.865-7.902-.082-.208-.122-.43-.122-.654l.002-1.287c.001-.977-.79-1.769-1.767-1.769h-5.133c-.971,0-1.761.784-1.767,1.756Z"/>
    </g>
    <circle class="cls-2" cx="29.617" cy="28.673" r="13.466"/>
  </g>
  <g>
    <path class="cls-1" d="M91.52,44.227h-5.583V15.477h-10.583v-5h26.75v5h-10.583v28.75Z"/>
    <path class="cls-1" d="M106.604,44.227V9.227h5.5v13.542h.167c.722-1.25,1.722-2.235,3-2.958,1.277-.722,2.764-1.083,4.458-1.083,1.805,0,3.396.438,4.771,1.312s2.451,2.09,3.229,3.646c.777,1.556,1.167,3.348,1.167,5.375v15.167h-5.5v-14.208c0-2-.493-3.548-1.479-4.646-.986-1.097-2.369-1.646-4.146-1.646s-3.167.549-4.167,1.646c-1,1.098-1.5,2.646-1.5,4.646v14.208h-5.5Z"/>
    <path class="cls-1" d="M146.312,44.727c-2.333,0-4.396-.535-6.188-1.604-1.792-1.069-3.202-2.583-4.229-4.542-1.028-1.958-1.542-4.271-1.542-6.938,0-2.639.5-4.923,1.5-6.854,1-1.93,2.381-3.423,4.146-4.479,1.764-1.056,3.784-1.583,6.062-1.583,2.11,0,4.006.479,5.688,1.438,1.68.958,3.006,2.34,3.979,4.146.972,1.806,1.458,3.973,1.458,6.5v2.167h-17.5c.194,2.223.881,3.965,2.062,5.229,1.18,1.265,2.688,1.896,4.521,1.896,1.333,0,2.465-.326,3.396-.979.93-.652,1.548-1.548,1.854-2.688h5.625c-.333,1.723-1.014,3.202-2.042,4.438-1.028,1.236-2.292,2.188-3.792,2.854s-3.167,1-5,1ZM139.853,29.018h12c-.223-1.833-.854-3.243-1.896-4.229-1.042-.986-2.34-1.479-3.896-1.479-1.583,0-2.924.5-4.021,1.5-1.098,1-1.827,2.403-2.188,4.208Z"/>
    <path class="cls-1" d="M188.977,44.727c-2.917,0-5.507-.736-7.771-2.208-2.265-1.472-4.042-3.521-5.333-6.146s-1.938-5.632-1.938-9.021c0-3.444.673-6.472,2.021-9.083,1.347-2.61,3.208-4.646,5.583-6.104s5.104-2.188,8.188-2.188c2.472,0,4.681.465,6.625,1.396s3.542,2.243,4.792,3.938,2.042,3.694,2.375,6h-5.875c-.278-1.889-1.125-3.402-2.542-4.542-1.417-1.139-3.208-1.708-5.375-1.708-2.028,0-3.799.514-5.312,1.542-1.514,1.028-2.694,2.465-3.542,4.312-.848,1.848-1.271,4.007-1.271,6.479s.431,4.646,1.292,6.521c.86,1.875,2.048,3.348,3.562,4.417,1.514,1.07,3.271,1.604,5.271,1.604,1.583,0,3-.298,4.25-.896,1.25-.597,2.236-1.417,2.958-2.458.722-1.042,1.083-2.201,1.083-3.479v-1.75h-8.875v-4.583h9.917c1.472,0,2.583.382,3.333,1.146.75.764,1.125,1.869,1.125,3.312v13h-5.208v-4.458h-.167c-.695,1.5-1.841,2.702-3.438,3.604-1.598.902-3.507,1.354-5.729,1.354Z"/>
    <path class="cls-1" d="M210.727,44.227v-25h5.292v4.625h.167c.555-1.472,1.43-2.652,2.625-3.542,1.194-.889,2.639-1.333,4.333-1.333h1.958v4.875h-2.208c-2.223,0-3.89.681-5,2.042-1.111,1.361-1.667,3.181-1.667,5.458v12.875h-5.5Z"/>
    <path class="cls-1" d="M232.685,16.227c-.89,0-1.653-.312-2.292-.938-.639-.625-.958-1.396-.958-2.312,0-.889.312-1.652.938-2.292.625-.639,1.396-.958,2.312-.958.889,0,1.652.312,2.292.938.639.625.958,1.396.958,2.312,0,.889-.312,1.653-.938,2.292-.625.64-1.396.958-2.312.958ZM229.935,44.227v-25h5.5v25h-5.5Z"/>
    <path class="cls-1" d="M251.518,44.727c-2.083,0-3.903-.542-5.458-1.625s-2.764-2.604-3.625-4.562c-.861-1.958-1.292-4.229-1.292-6.812,0-2.611.43-4.889,1.292-6.833.861-1.944,2.069-3.458,3.625-4.542s3.375-1.625,5.458-1.625c3.472,0,5.902,1.417,7.292,4.25h.167v-13.75h5.5v35h-5.375v-3.875h-.167c-1.444,2.917-3.917,4.375-7.417,4.375ZM252.977,39.852c1.889,0,3.36-.604,4.417-1.812,1.055-1.208,1.583-2.812,1.583-4.812v-3c0-2-.528-3.604-1.583-4.812-1.056-1.208-2.528-1.812-4.417-1.812-1.917,0-3.452.736-4.604,2.208-1.153,1.473-1.729,3.444-1.729,5.917s.576,4.445,1.729,5.917c1.152,1.473,2.688,2.208,4.604,2.208Z"/>
  </g>
</svg>