<?xml version="1.0" encoding="UTF-8"?>
<svg id="Layer_1" data-name="Layer 1" xmlns="http://www.w3.org/2000/svg" width="261.651" height="270.277" viewBox="0 0 261.651 270.277">
  <defs>
    <style>
      .cls-1 {
        opacity: .81;
      }

      .cls-2 {
        fill: #e1dac8;
        stroke: #333;
        stroke-miterlimit: 10;
      }
    </style>
  </defs>
  <g class="cls-1">
    <g>
      <path class="cls-2" d="M35.907,132.336c1.681,16.655-23.119,18.838-24.94,3.123-1.98-17.053,23.333-19.056,24.94-3.123Z"/>
      <path class="cls-2" d="M250.127,132.336c1.681,16.655-23.119,18.838-24.944,3.123-1.98-17.053,23.333-19.056,24.944-3.123Z"/>
      <path class="cls-2" d="M193.904,44.827c1.681,16.655-23.119,18.842-24.944,3.127-1.98-17.057,23.336-19.055,24.944-3.127Z"/>
      <path class="cls-2" d="M64.448,47.954c-1.979-17.055,23.334-19.056,24.943-3.125,1.682,16.654-23.119,18.84-24.943,3.125Z"/>
      <path class="cls-2" d="M87.337,224.719c1.685,16.655-23.119,18.842-24.94,3.127-1.98-17.057,23.333-19.055,24.94-3.127Z"/>
      <path class="cls-2" d="M193.904,227.809c1.681,16.651-23.119,18.838-24.944,3.123-1.98-17.053,23.336-19.056,24.944-3.123Z"/>
    </g>
    <path class="cls-2" d="M174.086,167.578l3.794,7.456c.041.077.081.155.125.229.553,1.014,1.324,1.903,2.257,2.596l51.68,38.509c7.835,5.848,2.01,16.843-6.619,14.251-.863-.258-1.667-.704-2.386-1.243l-37.753-28.358c-2.482-1.862-5.804-2.146-8.565-.734l-14.059,7.186c-2.721,1.394-4.428,4.192-4.417,7.249l.144,47.819c-.844,6.135-6.493,8.499-10.936,6.596-2.765-1.184-4.443-4.045-4.532-7.054-.269-9.336-.365-18.69-.413-28.026-.063-13.031.748-26.294-.284-39.239-.03-.383-.063-.767-.096-1.15-.088-1.021-.383-2.017-.844-2.935l-2.651-5.28c-2.013-4.008-.391-8.886,3.617-10.896l21.076-10.553c3.99-1.998,8.842-.402,10.863,3.577Z"/>
    <path class="cls-2" d="M103.051,158.91l19.612,13.079c3.709,2.474,4.727,7.481,2.275,11.209l-4.598,6.987c-.686,1.043-1.121,2.231-1.272,3.47l-.07.557-7.776,63.416c-1.198,9.701-13.635,10.088-15.66,1.309-.199-.878-.214-1.792-.1-2.688l5.925-46.842c.391-3.079-1.01-6.106-3.602-7.806l-13.211-8.65c-2.555-1.674-5.837-1.77-8.484-.247l-41.466,23.819c-5.748,2.308-10.601-1.431-11.15-6.231-.343-2.99,1.313-5.866,3.883-7.43,7.979-4.863,16.054-9.579,24.14-14.244,10.309-5.951,21.146-11.36,31.127-17.82,1.272-.822,2.529-1.663,3.768-2.522.844-.586,1.563-1.331,2.131-2.187l3.274-4.922c2.481-3.731,7.526-4.742,11.253-2.257Z"/>
    <path class="cls-2" d="M11.638,83.643c8.47,3.942,16.873,8.042,25.243,12.179,12.028,5.947,23.856,12.839,36.286,17.746.159.063.321.122.483.17.811.262,1.663.391,2.518.391l5.911-.007c4.484-.007,8.123,3.628,8.123,8.112v23.572c0,2.481-1.117,4.709-2.88,6.195-1.397,1.184-3.208,1.903-5.184,1.917l-8.363.052c-.026,0-.052,0-.077.004-1.224.015-2.426.31-3.518.863l-57.576,28.963c-8.735,4.388-15.955-5.745-9.775-12.297.616-.656,1.372-1.173,2.179-1.574l35.969-17.927,6.29-3.134c2.776-1.383,4.521-4.229,4.495-7.33l-.133-15.789c-.026-3.057-1.766-5.837-4.502-7.197L4.304,97.267c-5.11-3.499-4.69-9.613-1.003-12.732,2.297-1.943,5.608-2.161,8.337-.892Z"/>
    <path class="cls-2" d="M258.349,84.535c3.687,3.119,4.108,9.233-1.003,12.732l-42.823,21.283c-2.736,1.361-4.476,4.141-4.502,7.197l-.133,15.789c-.026,3.101,1.718,5.947,4.495,7.33l6.29,3.134,18.808,9.377,17.16,8.551c.808.402,1.563.918,2.179,1.574,6.18,6.552-1.043,16.685-9.775,12.297l-9.565-4.812-48.011-24.151c-.328-.166-.664-.306-1.01-.424-.83-.288-1.7-.439-2.585-.442l-8.363-.052c-1.976-.015-3.787-.734-5.184-1.917-1.762-1.486-2.88-3.713-2.88-6.195v-23.572c0-4.484,3.639-8.119,8.123-8.112l5.911.007c1.025,0,2.046-.184,3.001-.56.619-.243,1.239-.494,1.855-.749,11.755-4.845,23.005-11.346,34.431-16.998,8.37-4.137,16.773-8.237,25.243-12.179,2.729-1.268,6.04-1.051,8.337.892Z"/>
    <path class="cls-2" d="M111.731,8.099l7.846,63.973c.048.38.118.752.221,1.117.218.833.575,1.626,1.051,2.352l4.598,6.987c2.452,3.728,1.434,8.735-2.275,11.209l-19.609,13.079c-3.731,2.489-8.776,1.475-11.257-2.257l-3.274-4.922c-.568-.852-1.287-1.6-2.131-2.186-1.04-.723-2.094-1.431-3.16-2.124-10.147-6.637-21.216-12.149-31.736-18.218-8.086-4.664-16.161-9.38-24.14-14.244-2.566-1.563-4.226-4.439-3.883-7.43.549-4.801,5.402-8.536,11.15-6.228l41.466,23.816c2.647,1.523,5.929,1.427,8.484-.247l13.211-8.65c2.592-1.7,3.993-4.727,3.602-7.806l-5.925-46.842c-.111-.892-.1-1.81.103-2.688,2.021-8.779,14.461-8.392,15.656,1.309Z"/>
    <path class="cls-2" d="M162.054,6.691c.229.87.265,1.785.181,2.681l-4.546,47.001c-.299,3.086,1.187,6.073,3.831,7.695l13.458,8.256c2.607,1.6,5.885,1.597,8.488,0l40.747-25.029c5.678-2.474,10.638,1.117,11.331,5.903.428,2.976-1.143,5.9-3.665,7.54-7.832,5.092-15.763,10.044-23.709,14.948-9.638,5.944-19.775,11.419-29.166,17.754-1.733,1.169-3.444,2.367-5.118,3.602-.826.612-1.523,1.379-2.065,2.249l-3.127,5.015c-2.375,3.805-7.382,4.963-11.187,2.588l-19.985-12.496c-3.783-2.367-4.945-7.341-2.603-11.135l4.388-7.124c.656-1.062,1.058-2.26,1.173-3.507l.011-.118,5.951-64.054c.911-9.731,13.329-10.486,15.612-1.77Z"/>
  </g>
</svg>